# Blender v2.79 (sub 0) OBJ File: 'crystal.blend'
# www.blender.org
mtllib crystalpiece.mtl
o Cube.005_Cube.000
v 1.000000 0.000000 -1.000000
v 0.000000 2.000000 -0.000000
v 1.000000 0.000000 -0.000000
v -0.000000 0.000000 -1.000000
v 0.000000 0.000000 -0.000000
vn 0.8944 0.4472 -0.0000
vn -0.0000 0.4472 -0.8944
vn 0.0000 -1.0000 0.0000
vn -1.0000 0.0000 0.0000
vn 0.0000 0.0000 1.0000
g Cube.005_Cube.000_None
usemtl None
s off
f 1//1 2//1 3//1
f 4//2 2//2 1//2
f 3//3 5//3 4//3 1//3
f 4//4 5//4 2//4
f 3//5 2//5 5//5
